<svg width="11" height="21" viewBox="0 0 11 21" fill="none" xmlns="http://www.w3.org/2000/svg">
<g filter="url(#filter0_d_5_174)">
<path d="M5.12659 7.3293L10.2651 12.8643C10.4335 13.0455 10.7061 13.0452 10.8742 12.8634C11.0421 12.6815 11.0417 12.3869 10.8733 12.2055L6.0406 6.99998L10.8735 1.79443C11.0418 1.61303 11.0423 1.31863 10.8743 1.13676C10.7901 1.04559 10.6797 1 10.5693 1C10.4592 1 10.3493 1.04528 10.2652 1.13582L5.12659 6.67068C5.0455 6.75782 5 6.87642 5 6.99998C5 7.12354 5.04563 7.24199 5.12659 7.3293Z" fill="black"/>
<path d="M5.12659 7.3293L10.2651 12.8643C10.4335 13.0455 10.7061 13.0452 10.8742 12.8634C11.0421 12.6815 11.0417 12.3869 10.8733 12.2055L6.0406 6.99998L10.8735 1.79443C11.0418 1.61303 11.0423 1.31863 10.8743 1.13676C10.7901 1.04559 10.6797 1 10.5693 1C10.4592 1 10.3493 1.04528 10.2652 1.13582L5.12659 6.67068C5.0455 6.75782 5 6.87642 5 6.99998C5 7.12354 5.04563 7.24199 5.12659 7.3293Z" stroke="black"/>
</g>
<defs>
<filter id="filter0_d_5_174" x="0.5" y="0.5" width="15" height="21" filterUnits="userSpaceOnUse" color-interpolation-filters="sRGB">
<feFlood flood-opacity="0" result="BackgroundImageFix"/>
<feColorMatrix in="SourceAlpha" type="matrix" values="0 0 0 0 0 0 0 0 0 0 0 0 0 0 0 0 0 0 127 0" result="hardAlpha"/>
<feOffset dy="4"/>
<feGaussianBlur stdDeviation="2"/>
<feComposite in2="hardAlpha" operator="out"/>
<feColorMatrix type="matrix" values="0 0 0 0 0 0 0 0 0 0 0 0 0 0 0 0 0 0 0.25 0"/>
<feBlend mode="normal" in2="BackgroundImageFix" result="effect1_dropShadow_5_174"/>
<feBlend mode="normal" in="SourceGraphic" in2="effect1_dropShadow_5_174" result="shape"/>
</filter>
</defs>
</svg>
